<?xml version="1.0" encoding="utf-8"?>
<!-- Generator: Adobe Illustrator 21.1.0, SVG Export Plug-In . SVG Version: 6.00 Build 0)  -->
<svg version="1.1" id="Layer_1" xmlns="http://www.w3.org/2000/svg" xmlns:xlink="http://www.w3.org/1999/xlink" x="0px" y="0px"
	 viewBox="0 0 64 64" enable-background="new 0 0 64 64" xml:space="preserve">
<g>
	<g>
		<g>
			<path fill="#B42618" d="M32,2c16.542,0,30,13.458,30,30S48.542,62,32,62S2,48.542,2,32S15.458,2,32,2 M32,0
				C14.327,0,0,14.327,0,32s14.327,32,32,32s32-14.327,32-32S49.673,0,32,0L32,0z"/>
		</g>
	</g>
	<g>
		<path fill="#A32016" stroke="#A42117" stroke-width="0.7623" stroke-miterlimit="10" d="M29.344,51.102l-14.292-6.053
			c-1.309-0.554-1.309-1.461,0-2.016l14.847-6.288c1.309-0.554,3.45-0.554,4.759,0l14.292,6.053c1.309,0.554,1.309,1.461,0,2.016
			l-14.847,6.288C32.794,51.656,30.653,51.656,29.344,51.102z"/>
		<polygon fill="#A32016" points="50.31,43.811 13.69,44.035 13.69,40.66 50.31,40.436 		"/>
		<path fill="#FFFFFF" stroke="#A42117" stroke-width="0.7623" stroke-miterlimit="10" d="M29.344,47.726l-14.292-6.053
			c-1.309-0.554-1.309-1.461,0-2.016l14.847-6.288c1.309-0.554,3.45-0.554,4.759,0l14.292,6.053c1.309,0.554,1.309,1.461,0,2.016
			l-14.847,6.288C32.794,48.281,30.653,48.281,29.344,47.726z"/>
		<path fill="#A32016" stroke="#A42117" stroke-width="0.7623" stroke-miterlimit="10" d="M29.344,44.773L15.052,38.72
			c-1.309-0.554-1.309-1.461,0-2.016l14.847-6.288c1.309-0.554,3.45-0.554,4.759,0l14.292,6.053c1.309,0.554,1.309,1.461,0,2.016
			l-14.847,6.288C32.794,45.327,30.653,45.327,29.344,44.773z"/>
		<polygon fill="#A32016" points="50.31,37.482 13.69,37.707 13.69,34.332 50.31,34.107 		"/>
		<path fill="#FFFFFF" stroke="#A42117" stroke-width="0.7623" stroke-miterlimit="10" d="M29.344,41.398l-14.292-6.053
			c-1.309-0.554-1.309-1.461,0-2.016l14.847-6.288c1.309-0.554,3.45-0.554,4.759,0l14.292,6.053c1.309,0.554,1.309,1.461,0,2.016
			l-14.847,6.288C32.794,41.952,30.653,41.952,29.344,41.398z"/>
		<path fill="#A32016" stroke="#A42117" stroke-width="0.7623" stroke-miterlimit="10" d="M29.344,38.445l-14.292-6.053
			c-1.309-0.554-1.309-1.461,0-2.016l14.847-6.288c1.309-0.554,3.45-0.554,4.759,0l14.292,6.053c1.309,0.554,1.309,1.461,0,2.016
			l-14.847,6.288C32.794,38.999,30.653,38.999,29.344,38.445z"/>
		<polygon fill="#A32016" points="50.31,31.154 13.69,31.378 13.69,28.003 50.31,27.778 		"/>
		<path fill="#FFFFFF" stroke="#A42117" stroke-width="0.7623" stroke-miterlimit="10" d="M29.344,35.069l-14.292-6.053
			c-1.309-0.554-1.309-1.461,0-2.016l14.847-6.288c1.309-0.554,3.45-0.554,4.759,0l14.292,6.053c1.309,0.554,1.309,1.461,0,2.016
			l-14.847,6.288C32.794,35.624,30.653,35.624,29.344,35.069z"/>
		<path fill="#79170E" d="M30.324,32.872l-10.992-4.655c-0.369-0.156-0.369-0.412,0-0.568l11.374-4.817
			c0.806-0.342,2.126-0.342,2.932,0l10.992,4.655c0.369,0.156,0.369,0.412,0,0.568l-11.374,4.817
			C32.45,33.214,31.131,33.214,30.324,32.872z"/>
		<g>
			<defs>
				<rect id="SVGID_4_" x="18.749" y="21.123" width="13.466" height="12.85"/>
			</defs>
			<clipPath id="SVGID_1_">
				<use xlink:href="#SVGID_4_"  overflow="visible"/>
			</clipPath>
			<path clip-path="url(#SVGID_1_)" fill="#AC2217" d="M30.324,32.872l-10.992-4.655c-0.369-0.156-0.369-0.412,0-0.568l11.374-4.817
				c0.806-0.342,2.126-0.342,2.932,0l10.992,4.655c0.369,0.156,0.369,0.412,0,0.568l-11.374,4.817
				C32.45,33.214,31.131,33.214,30.324,32.872z"/>
		</g>
		<path fill="#A42117" d="M30.324,32.872l-10.992-4.655c-0.369-0.156-0.369-0.412,0-0.568l11.374-4.817
			c0.806-0.342,2.126-0.342,2.932,0l10.992,4.655c0.369,0.156,0.369,0.412,0,0.568l-11.374,4.817
			C32.45,33.214,31.131,33.214,30.324,32.872z"/>
		<g>
			<defs>
				<path id="SVGID_3_" d="M30.324,32.872l-11.491-4.867V8.483l26.279,0.008v19.361l-11.856,5.021
					C32.45,33.214,31.131,33.214,30.324,32.872z"/>
			</defs>
			<clipPath id="SVGID_5_">
				<use xlink:href="#SVGID_3_"  overflow="visible"/>
			</clipPath>
			<path clip-path="url(#SVGID_5_)" fill="#FFFFFF" stroke="#A42117" stroke-width="0.7623" stroke-miterlimit="10" d="
				M25.884,18.944V39.44l0.001,0c0.004,0.123,0.114,0.245,0.334,0.338l4.876,2.065c0.447,0.189,1.177,0.189,1.624,0l5.066-2.145
				c0.222-0.094,0.334-0.218,0.335-0.342h0V18.864L25.884,18.944z"/>
		</g>
		<path fill="#A42117" stroke="#A32016" stroke-width="0.7623" stroke-miterlimit="10" d="M31.095,21.353l-4.876-2.065
			c-0.447-0.189-0.447-0.499,0-0.688l5.066-2.145c0.447-0.189,1.177-0.189,1.624,0l4.876,2.065c0.447,0.189,0.447,0.499,0,0.688
			l-5.066,2.145C32.272,21.542,31.541,21.542,31.095,21.353z"/>
		<g>
			<defs>
				<path id="SVGID_2_" d="M30.324,32.872l-11.491-4.867V8.483l26.279,0.008v19.361l-11.856,5.021
					C32.45,33.214,31.131,33.214,30.324,32.872z"/>
			</defs>
			<clipPath id="SVGID_6_">
				<use xlink:href="#SVGID_2_"  overflow="visible"/>
			</clipPath>
			<path clip-path="url(#SVGID_6_)" fill="#FFFFFF" d="M19.344,27.886v32.159l0.001,0c0.004,0.123,0.114,0.245,0.334,0.338
				l4.876,2.065c0.447,0.189,1.177,0.189,1.624,0l5.066-2.145c0.222-0.094,0.334-0.218,0.335-0.342h0V27.807L19.344,27.886z"/>
		</g>
		<path fill="#A32016" d="M24.555,30.295l-4.876-2.065c-0.447-0.189-0.447-0.499,0-0.688l5.066-2.145
			c0.447-0.189,1.177-0.189,1.624,0l4.876,2.065c0.447,0.189,0.447,0.499,0,0.688l-5.066,2.145
			C25.732,30.484,25.002,30.484,24.555,30.295z"/>
		<path fill="#A32016" d="M31.095,33.11l-4.876-2.065c-0.447-0.189-0.447-0.499,0-0.688l5.066-2.145
			c0.447-0.189,1.177-0.189,1.624,0l4.876,2.065c0.447,0.189,0.447,0.499,0,0.688l-5.066,2.145
			C32.272,33.299,31.541,33.299,31.095,33.11z"/>
		
			<line fill="none" stroke="#A42117" stroke-width="0.7623" stroke-miterlimit="10" x1="31.973" y1="21.495" x2="31.973" y2="28.07"/>
	</g>
</g>
</svg>
