<?xml version="1.0" encoding="utf-8"?>
<!-- Generator: Adobe Illustrator 21.0.0, SVG Export Plug-In . SVG Version: 6.00 Build 0)  -->
<svg version="1.1" id="Layer_1" xmlns="http://www.w3.org/2000/svg" xmlns:xlink="http://www.w3.org/1999/xlink" x="0px" y="0px"
	 viewBox="0 0 64 64" style="enable-background:new 0 0 64 64;" xml:space="preserve">
<style type="text/css">
	.st0{fill:#FFFFFF;}
	.st1{fill:#B42618;}
	.st2{fill:#FFFFFF;stroke:#B42618;stroke-width:2;stroke-miterlimit:10;}
</style>
<g>
	<g>
		<path class="st0" d="M32,63C14.9,63,1,49.1,1,32C1,14.9,14.9,1,32,1s31,13.9,31,31C63,49.1,49.1,63,32,63z"/>
		<g>
			<path class="st1" d="M32,2c16.5,0,30,13.5,30,30S48.5,62,32,62S2,48.5,2,32S15.5,2,32,2 M32,0C14.3,0,0,14.3,0,32s14.3,32,32,32
				s32-14.3,32-32S49.7,0,32,0L32,0z"/>
		</g>
	</g>
	<line class="st2" x1="32" y1="0" x2="32" y2="62.9"/>
	<path class="st2" d="M32,37.2c0,0,0.9,4.3-4.1,4.4c-5,0.1-6.8,0-6.8,0l-3.8-0.1"/>
	<path class="st2" d="M32.1,23.7c0,0,0,4.8,3.3,4.8s10.3,0,10.3,0"/>
	<path class="st2" d="M32,11.2c0,0-0.6,5-5.4,5s-4.8,0-4.8,0"/>
	<path class="st2" d="M32,56.3c0,0-0.1-6.6,3.9-6.6c3,0,3,0,3,0"/>
	<line class="st2" x1="23.8" y1="36.5" x2="23.8" y2="40.9"/>
	<circle class="st2" cx="40.7" cy="49.7" r="2.5"/>
	<circle class="st2" cx="48.7" cy="28.5" r="2.5"/>
	<circle class="st2" cx="23.8" cy="33.7" r="2.5"/>
	<circle class="st2" cx="13.6" cy="27" r="2.5"/>
	<circle class="st2" cx="15.2" cy="41.7" r="2.5"/>
	<circle class="st2" cx="20.2" cy="16.2" r="2.5"/>
	<path class="st2" d="M1,32c0,0,2.1-6.1,10.1-5.6"/>
	<ellipse transform="matrix(0.9371 -0.349 0.349 0.9371 -17.1375 10.8894)" class="st2" cx="21.7" cy="53" rx="2.5" ry="2.5"/>
	<path class="st2" d="M22.4,61.5c0,0-5.1-1.8-3-7.2"/>
	<ellipse transform="matrix(0.7071 -0.7071 0.7071 0.7071 -15.282 45.3498)" class="st2" cx="47.1" cy="41.1" rx="2.5" ry="2.5"/>
	<path class="st2" d="M59.6,46.5c0,0-5.8,2.8-11.1-3.2"/>
	<ellipse transform="matrix(0.7071 -0.7071 0.7071 0.7071 1.3186 33.6196)" class="st2" cx="41.2" cy="15.2" rx="2.5" ry="2.5"/>
	<path class="st2" d="M53.7,9.9c0,0-5.8-2.8-11.1,3.2"/>
</g>
</svg>
